<svg xmlns="http://www.w3.org/2000/svg" width="48" height="48" viewBox="0 0 48 48" fill="none">
  <defs>
    <linearGradient id="shieldGrad" x1="24" y1="0" x2="24" y2="48" gradientUnits="userSpaceOnUse">
      <stop offset="0" stop-color="#3B82F6"/>
      <stop offset="1" stop-color="#1D4ED8"/>
    </linearGradient>
  </defs>
  <path d="M24 2L6 10v12c0 11.1 7.7 21.5 18 24 10.3-2.5 18-12.9 18-24V10L24 2z" fill="url(#shieldGrad)"/>
  <path d="M24 4.5L8 11.5v10.5c0 10 7 19.5 16 21.8 9-2.3 16-11.8 16-21.8V11.5L24 4.5z" fill="none" stroke="white" stroke-opacity="0.2" stroke-width="0.5"/>
  <path d="M20 25l-4-4-2 2 6 6 12-12-2-2-10 10z" fill="white"/>
</svg>
